Full Metal Jacket

source:

Full.Metal.Jacket.REMASTERED.1987.720p.HDDVD.x264-SEPTiC 
http://www.imdb.com/title/tt0093058/

ID                               : 1
Format                           : AVC
Format/Info                      : Advanced Video Codec
Format profile                   : Baseline@L2.1
Format settings, CABAC           : No
Format settings, ReFrames        : 3 frames
Codec ID                         : avc1
Codec ID/Info                    : Advanced Video Coding
Duration                         : 1h 56mn
Bit rate mode                    : Variable
Bit rate                         : 395 Kbps
Width                            : 480 pixels
Height                           : 272 pixels
Display aspect ratio             : 16:9
Frame rate mode                  : Variable
Frame rate                       : 23.976 fps
Minimum frame rate               : 23.810 fps
Maximum frame rate               : 24.390 fps
Color space                      : YUV
Chroma subsampling               : 4:2:0
Bit depth                        : 8 bits
Scan type                        : Progressive
Bits/(Pixel*Frame)               : 0.126
Stream size                      : 329 MiB (75%)
Writing library                  : x264 core 79

ID                               : 2
Format                           : AAC
Format/Info                      : Advanced Audio Codec
Format version                   : Version 4
Format profile                   : LC
Format settings, SBR             : No
Codec ID                         : 40
Duration                         : 1h 56mn
Bit rate mode                    : Variable
Bit rate                         : 128 Kbps
Maximum bit rate                 : 181 Kbps
Channel(s)                       : 2 channels
Channel positions                : Front: L R
Sampling rate                    : 48.0 KHz
Stream size                      : 107 MiB (24%)
Language                         : English
 
http://img42.imageshack.us/img42/760/vlcsnap00001r.png 
http://img256.imageshack.us/img256/2163/vlcsnap00002s.png 
http://img72.imageshack.us/img72/7499/vlcsnap00003v.png 
http://img84.imageshack.us/img84/803/vlcsnap00004s.png 
http://img517.imageshack.us/img517/1001/vlcsnap00005p.png 
http://img18.imageshack.us/img18/3027/vlcsnap00006d.png 
http://img708.imageshack.us/img708/335/vlcsnap00007t.png 
http://img25.imageshack.us/img25/5291/vlcsnap00008w.png






PLEASE LET THE TORRENT SEED AND SHARE IT WITH ALL YOU KNOW!

Let me know what I can do to be your trusted source of Handheld videos.





-OOO 
